<svg width="2626" height="1073" xmlns="http://www.w3.org/2000/svg" xmlns:xlink="http://www.w3.org/1999/xlink" xml:space="preserve" overflow="hidden"><defs><clipPath id="clip0"><rect x="907" y="638" width="2626" height="1073"/></clipPath><linearGradient x1="2624.5" y1="1573.5" x2="2624.5" y2="1674.5" gradientUnits="userSpaceOnUse" spreadMethod="reflect" id="fill1"><stop offset="0" stop-color="#001AA0"/><stop offset="0.5" stop-color="#002AE6"/><stop offset="1" stop-color="#0034FF"/></linearGradient><linearGradient x1="106.158" y1="-2.10067e-14" x2="106.158" y2="216.035" gradientUnits="userSpaceOnUse" spreadMethod="reflect" id="fill2"><stop offset="0" stop-color="#001AA0"/><stop offset="0.5" stop-color="#002AE6"/><stop offset="1" stop-color="#0034FF"/></linearGradient><linearGradient x1="106.158" y1="-2.10067e-14" x2="106.158" y2="216.035" gradientUnits="userSpaceOnUse" spreadMethod="reflect" id="fill3"><stop offset="0" stop-color="#001AA0"/><stop offset="0.5" stop-color="#002AE6"/><stop offset="1" stop-color="#0034FF"/></linearGradient><linearGradient x1="106.158" y1="-2.10067e-14" x2="106.158" y2="217.914" gradientUnits="userSpaceOnUse" spreadMethod="reflect" id="fill4"><stop offset="0" stop-color="#001AA0"/><stop offset="0.5" stop-color="#002AE6"/><stop offset="1" stop-color="#0034FF"/></linearGradient><linearGradient x1="114.466" y1="-2.10067e-14" x2="114.466" y2="232.943" gradientUnits="userSpaceOnUse" spreadMethod="reflect" id="fill5"><stop offset="0" stop-color="#001AA0"/><stop offset="0.5" stop-color="#002AE6"/><stop offset="1" stop-color="#0034FF"/></linearGradient><linearGradient x1="115.388" y1="-2.10067e-14" x2="115.388" y2="232.943" gradientUnits="userSpaceOnUse" spreadMethod="reflect" id="fill6"><stop offset="0" stop-color="#001AA0"/><stop offset="0.5" stop-color="#002AE6"/><stop offset="1" stop-color="#0034FF"/></linearGradient><linearGradient x1="115.388" y1="-2.10067e-14" x2="115.388" y2="232.943" gradientUnits="userSpaceOnUse" spreadMethod="reflect" id="fill7"><stop offset="0" stop-color="#001AA0"/><stop offset="0.5" stop-color="#002AE6"/><stop offset="1" stop-color="#0034FF"/></linearGradient></defs><g clip-path="url(#clip0)" transform="translate(-907 -638)"><path d="M0 0 89 36.0001" stroke="#000000" stroke-width="2.29167" stroke-linejoin="round" stroke-miterlimit="10" fill="none" fill-rule="evenodd" transform="matrix(1 0 0 -1 2089 1642)"/><text font-family="Times New Roman,Times New Roman_MSFontService,sans-serif" font-weight="400" font-size="71" transform="matrix(1 0 0 1 2236.96 1649)">C</text><text font-family="Times New Roman,Times New Roman_MSFontService,sans-serif" font-weight="400" font-size="71" transform="matrix(1 0 0 1 2284.51 1649)">-</text><text font-family="Times New Roman,Times New Roman_MSFontService,sans-serif" font-weight="400" font-size="71" transform="matrix(1 0 0 1 2308.58 1649)">Bond</text><text font-family="Times New Roman,Times New Roman_MSFontService,sans-serif" font-weight="400" font-size="71" transform="matrix(1 0 0 1 1293.84 1650)">Hydrogen</text><path d="M1183.5 1624C1183.5 1614.89 1191.11 1607.5 1200.5 1607.5 1209.89 1607.5 1217.5 1614.89 1217.5 1624 1217.5 1633.11 1209.89 1640.5 1200.5 1640.5 1191.11 1640.5 1183.5 1633.11 1183.5 1624Z" stroke="#000000" stroke-width="0" stroke-linejoin="round" stroke-miterlimit="10" fill="#F5FAC4" fill-rule="evenodd"/><text font-family="Times New Roman,Times New Roman_MSFontService,sans-serif" font-weight="400" font-size="71" transform="matrix(1 0 0 1 1806.24 1650)">Carbon</text><path d="M1678.5 1628.5C1678.5 1609.72 1693.72 1594.5 1712.5 1594.5 1731.28 1594.5 1746.5 1609.72 1746.5 1628.5 1746.5 1647.28 1731.28 1662.5 1712.5 1662.5 1693.72 1662.5 1678.5 1647.28 1678.5 1628.5Z" stroke="#000000" stroke-width="0" stroke-linejoin="round" stroke-miterlimit="10" fill="#595959" fill-rule="evenodd"/><path d="M2573.5 1624C2573.5 1596.11 2596.33 1573.5 2624.5 1573.5 2652.67 1573.5 2675.5 1596.11 2675.5 1624 2675.5 1651.89 2652.67 1674.5 2624.5 1674.5 2596.33 1674.5 2573.5 1651.89 2573.5 1624Z" stroke="#000000" stroke-width="0" stroke-linejoin="round" stroke-miterlimit="10" fill="url(#fill1)" fill-rule="evenodd"/><text font-family="Times New Roman,Times New Roman_MSFontService,sans-serif" font-weight="400" font-size="71" transform="matrix(1 0 0 1 2711.79 1648)">Side</text><text font-family="Times New Roman,Times New Roman_MSFontService,sans-serif" font-weight="400" font-size="71" transform="matrix(1 0 0 1 2838.4 1648)">-</text><text font-family="Times New Roman,Times New Roman_MSFontService,sans-serif" font-weight="400" font-size="71" transform="matrix(1 0 0 1 2862.46 1648)">Group </text><path d="M1129.22 1295.25 907.964 1268.28" stroke="#000000" stroke-width="1.14583" stroke-linejoin="round" stroke-miterlimit="10" fill="none" fill-rule="evenodd"/><path d="M0 0 214.161 50.722" stroke="#000000" stroke-width="1.14583" stroke-linejoin="round" stroke-miterlimit="10" fill="none" fill-rule="evenodd" transform="matrix(-0.999934 -0.011507 -0.011507 0.999934 3242.65 1173.83)"/><path d="M3029.81 1224.52 2860.13 1047.85" stroke="#000000" stroke-width="1.14583" stroke-linejoin="round" stroke-miterlimit="10" fill="none" fill-rule="evenodd"/><path d="M0 0 221.547 116.47" stroke="#000000" stroke-width="1.14583" stroke-linejoin="round" stroke-miterlimit="10" fill="none" fill-rule="evenodd" transform="matrix(-0.999934 -0.011507 -0.011507 0.999934 2861.55 1050.51)"/><path d="M2639.92 1167.35 2444.03 1022.31" stroke="#000000" stroke-width="1.14583" stroke-linejoin="round" stroke-miterlimit="10" fill="none" fill-rule="evenodd"/><path d="M0 0 179.082 184.1" stroke="#000000" stroke-width="1.14583" stroke-linejoin="round" stroke-miterlimit="10" fill="none" fill-rule="evenodd" transform="matrix(-0.999934 -0.011507 -0.011507 0.999934 2444.66 1025.11)"/><path d="M2263.28 1210.41 2042.02 1183.45" stroke="#000000" stroke-width="1.14583" stroke-linejoin="round" stroke-miterlimit="10" fill="none" fill-rule="evenodd"/><path d="M0 0 156.929 75.1432" stroke="#000000" stroke-width="1.14583" stroke-linejoin="round" stroke-miterlimit="10" fill="none" fill-rule="evenodd" transform="matrix(-0.999934 -0.011507 -0.011507 0.999934 2042.59 1186.28)"/><path d="M1886.33 1261.77 1709.19 1092.53" stroke="#000000" stroke-width="1.14583" stroke-linejoin="round" stroke-miterlimit="10" fill="none" fill-rule="evenodd"/><path d="M1711.83 1093.64 1639.15 991.351" stroke="#000000" stroke-width="1.14583" stroke-linejoin="round" stroke-miterlimit="10" fill="none" fill-rule="evenodd"/><path d="M0 0 295.395 167.192" stroke="#000000" stroke-width="1.14583" stroke-linejoin="round" stroke-miterlimit="10" fill="none" fill-rule="evenodd" transform="matrix(-0.999934 -0.011507 -0.011507 0.999934 1639.58 994.161)"/><path d="M0 0 142.913 129.058" stroke="#000000" stroke-width="1.14583" stroke-linejoin="round" stroke-miterlimit="10" fill="none" fill-rule="evenodd" transform="matrix(-0.999934 -0.011507 -0.011507 0.999934 1276.7 1162.78)"/><path d="M3240.54 1172.01 3343.18 1398.63" stroke="#000000" stroke-width="1.14583" stroke-linejoin="round" stroke-miterlimit="10" fill="none" fill-rule="evenodd"/><path d="M0 0 179.082 150.286" stroke="#000000" stroke-width="1.14583" stroke-linejoin="round" stroke-miterlimit="10" fill="none" fill-rule="evenodd" transform="matrix(0.999934 0.011507 0.011507 -0.999934 3243.17 1170.5)"/><path d="M0 0 49.8479 242.336" stroke="#000000" stroke-width="1.14583" stroke-linejoin="round" stroke-miterlimit="10" fill="none" fill-rule="evenodd" transform="matrix(0.999934 0.011507 0.011507 -0.999934 2863.55 1047.63)"/><path d="M2447.59 1022.66 2448.81 755.904" stroke="#000000" stroke-width="1.14583" stroke-linejoin="round" stroke-miterlimit="10" fill="none" fill-rule="evenodd"/><path d="M0 0 25.8464 182.22" stroke="#000000" stroke-width="1.14583" stroke-linejoin="round" stroke-miterlimit="10" fill="none" fill-rule="evenodd" transform="matrix(-0.999934 -0.011507 -0.011507 0.999934 2041.46 1185.63)"/><path d="M0 0 190.16 24.4212" stroke="#000000" stroke-width="1.14583" stroke-linejoin="round" stroke-miterlimit="10" fill="none" fill-rule="evenodd" transform="matrix(-0.999934 -0.011507 -0.011507 0.999934 1711.17 1094.8)"/><path d="M1344.25 1159.97 1305.44 842.019" stroke="#000000" stroke-width="1.14583" stroke-linejoin="round" stroke-miterlimit="10" fill="none" fill-rule="evenodd"/><path d="M0 0 97.8495 92.0496" stroke="#000000" stroke-width="1.14583" stroke-linejoin="round" stroke-miterlimit="10" fill="none" fill-rule="evenodd" transform="matrix(-0.999934 -0.011507 -0.011507 0.999934 3340.78 1399.41)"/><path d="M3340.57 1398.57 3356.23 1481.41" stroke="#000000" stroke-width="1.14583" stroke-linejoin="round" stroke-miterlimit="10" fill="none" fill-rule="evenodd"/><path d="M0 0 42.4619 84.5362" stroke="#000000" stroke-width="1.14583" stroke-linejoin="round" stroke-miterlimit="10" fill="none" fill-rule="evenodd" transform="matrix(-0.999934 -0.011507 -0.011507 0.999934 1341.24 1161.01)"/><path d="M0 0 145.853 7.51306" stroke="#000000" stroke-width="1.14583" stroke-linejoin="round" stroke-miterlimit="10" fill="none" fill-rule="evenodd" transform="matrix(0.999934 0.011507 0.011507 -0.999934 1639.79 990.55)"/><path d="M0 0 99.6962 385.107" stroke="#000000" stroke-width="1.14583" stroke-linejoin="round" stroke-miterlimit="10" fill="none" fill-rule="evenodd" transform="matrix(-0.999934 -0.011507 -0.011507 0.999934 1637.46 993.333)"/><path d="M0 0 64.6185 150.286" stroke="#000000" stroke-width="1.14583" stroke-linejoin="round" stroke-miterlimit="10" fill="none" fill-rule="evenodd" transform="matrix(0.999934 0.011507 0.011507 -0.999934 1711.85 1092.52)"/><path d="M1884.4 1260.42 1958.16 1268.79" stroke="#000000" stroke-width="1.14583" stroke-linejoin="round" stroke-miterlimit="10" fill="none" fill-rule="evenodd"/><path d="M0 0 64.6185 157.799" stroke="#000000" stroke-width="1.14583" stroke-linejoin="round" stroke-miterlimit="10" fill="none" fill-rule="evenodd" transform="matrix(-0.999934 -0.011507 -0.011507 0.999934 1883.62 1261.8)"/><path d="M2044.1 1184.77 2012.79 1017.2" stroke="#000000" stroke-width="1.14583" stroke-linejoin="round" stroke-miterlimit="10" fill="none" fill-rule="evenodd"/><path d="M2262.87 1208.86 2254.12 1167.42" stroke="#000000" stroke-width="1.14583" stroke-linejoin="round" stroke-miterlimit="10" fill="none" fill-rule="evenodd"/><path d="M2261.24 1208.97 2307.42 1367.31" stroke="#000000" stroke-width="1.14583" stroke-linejoin="round" stroke-miterlimit="10" fill="none" fill-rule="evenodd"/><path d="M0 0 16.6155 41.329" stroke="#000000" stroke-width="1.14583" stroke-linejoin="round" stroke-miterlimit="10" fill="none" fill-rule="evenodd" transform="matrix(-0.999934 -0.011507 -0.011507 0.999934 2445.32 1023.58)"/><path d="M2637.55 1165.8 2734.53 1242.07" stroke="#000000" stroke-width="1.14583" stroke-linejoin="round" stroke-miterlimit="10" fill="none" fill-rule="evenodd"/><path d="M0 0 9.23091 133.378" stroke="#000000" stroke-width="1.14583" stroke-linejoin="round" stroke-miterlimit="10" fill="none" fill-rule="evenodd" transform="matrix(-0.999934 -0.011507 -0.011507 0.999934 2637.38 1166.72)"/><path d="M0 0 7.38458 43.2071" stroke="#000000" stroke-width="1.14583" stroke-linejoin="round" stroke-miterlimit="10" fill="none" fill-rule="evenodd" transform="matrix(0.999934 0.011507 0.011507 -0.999934 2862.17 1048.45)"/><path d="M3027.88 1223.62 3051.69 1240.8" stroke="#000000" stroke-width="1.14583" stroke-linejoin="round" stroke-miterlimit="10" fill="none" fill-rule="evenodd"/><path d="M0 0 57.2325 150.286" stroke="#000000" stroke-width="1.14583" stroke-linejoin="round" stroke-miterlimit="10" fill="none" fill-rule="evenodd" transform="matrix(-0.999934 -0.011507 -0.011507 0.999934 3027.09 1224.55)"/><path d="M3243.12 1172.16 3218.14 1096.72" stroke="#000000" stroke-width="1.14583" stroke-linejoin="round" stroke-miterlimit="10" fill="none" fill-rule="evenodd"/><path d="M0 41.3281C-5.28852e-15 18.5032 18.5978-5.26162e-15 41.5394-1.05232e-14 64.481-2.10465e-14 83.0789 18.5032 83.0789 41.3281 83.0789 64.153 64.481 82.6563 41.5394 82.6563 18.5978 82.6563-2.64426e-14 64.153 0 41.3281Z" stroke="#000000" stroke-width="1.14583" stroke-linejoin="round" stroke-miterlimit="10" fill="#FFFFBF" fill-rule="evenodd" transform="matrix(-0.999934 -0.011507 -0.011507 0.999934 1828.34 942.804)"/><path d="M0 42.2681C-5.28852e-15 18.9241 18.5978-5.38129e-15 41.5394-1.07626e-14 64.481-2.15252e-14 83.0789 18.9241 83.0789 42.2681 83.0789 65.6121 64.481 84.5362 41.5394 84.5362 18.5978 84.5362-2.64426e-14 65.6121 0 42.2681Z" stroke="#000000" stroke-width="1.14583" stroke-linejoin="round" stroke-miterlimit="10" fill="#FFFFBF" fill-rule="evenodd" transform="matrix(-0.999934 -0.011507 -0.011507 0.999934 3094.47 1197.94)"/><path d="M0 42.2681C-5.17109e-15 18.9241 18.1848-5.38129e-15 40.617-1.07626e-14 63.0491-2.15252e-14 81.234 18.9241 81.234 42.2681 81.234 65.6121 63.0491 84.5362 40.617 84.5362 18.1848 84.5362-2.58554e-14 65.6121 0 42.2681Z" stroke="#000000" stroke-width="1.14583" stroke-linejoin="round" stroke-miterlimit="10" fill="#FFFFBF" fill-rule="evenodd" transform="matrix(-0.999934 -0.011507 -0.011507 0.999934 2774.85 1198.82)"/><path d="M0 42.2681C-5.28852e-15 18.9241 18.5978-5.38129e-15 41.5394-1.07626e-14 64.481-2.15252e-14 83.0789 18.9241 83.0789 42.2681 83.0789 65.6121 64.481 84.5362 41.5394 84.5362 18.5978 84.5362-2.64426e-14 65.6121 0 42.2681Z" stroke="#000000" stroke-width="1.14583" stroke-linejoin="round" stroke-miterlimit="10" fill="#FFFFBF" fill-rule="evenodd" transform="matrix(-0.999934 -0.011507 -0.011507 0.999934 1414.94 1223.62)"/><path d="M0 108.017C-1.35153e-14 48.361 47.5286-1.3752e-14 106.158-2.75041e-14 164.788-5.50082e-14 212.316 48.361 212.316 108.017 212.316 167.674 164.788 216.035 106.158 216.035 47.5286 216.035-6.75767e-14 167.674 0 108.017Z" stroke="#000000" stroke-width="1.14583" stroke-linejoin="round" stroke-miterlimit="10" fill="url(#fill2)" fill-rule="evenodd" transform="matrix(-0.999934 -0.011507 -0.011507 0.999934 3024.37 697.165)"/><path d="M0 108.017C-1.35153e-14 48.361 47.5286-1.3752e-14 106.158-2.75041e-14 164.788-5.50082e-14 212.316 48.361 212.316 108.017 212.316 167.674 164.788 216.035 106.158 216.035 47.5286 216.035-6.75767e-14 167.674 0 108.017Z" stroke="#000000" stroke-width="1.14583" stroke-linejoin="round" stroke-miterlimit="10" fill="url(#fill3)" fill-rule="evenodd" transform="matrix(-0.999934 -0.011507 -0.011507 0.999934 1416.21 735.646)"/><path d="M0 108.957C-1.35153e-14 48.7818 47.5286-1.38717e-14 106.158-2.77434e-14 164.788-5.54868e-14 212.316 48.7818 212.316 108.957 212.316 169.133 164.788 217.914 106.158 217.914 47.5286 217.914-6.75767e-14 169.133 0 108.957Z" stroke="#000000" stroke-width="1.14583" stroke-linejoin="round" stroke-miterlimit="10" fill="url(#fill4)" fill-rule="evenodd" transform="matrix(-0.999934 -0.011507 -0.011507 0.999934 3532.97 912.88)"/><path d="M0 83.5962C-1.04596e-14 37.4273 36.7828-1.06429e-14 82.1566-2.12858e-14 127.53-4.25717e-14 164.313 37.4273 164.313 83.5962 164.313 129.765 127.53 167.192 82.1566 167.192 36.7828 167.192-5.22982e-14 129.765 0 83.5962Z" stroke="#000000" stroke-width="1.14583" stroke-linejoin="round" stroke-miterlimit="10" fill="#7F7F7F" fill-rule="evenodd" transform="matrix(-0.999934 -0.011507 -0.011507 0.999934 1722.26 909.913)"/><path d="M0 41.3281C-5.17109e-15 18.5032 18.1848-5.26162e-15 40.617-1.05232e-14 63.0491-2.10465e-14 81.234 18.5032 81.234 41.3281 81.234 64.153 63.0491 82.6563 40.617 82.6563 18.1848 82.6563-2.58554e-14 64.153 0 41.3281Z" stroke="#000000" stroke-width="1.14583" stroke-linejoin="round" stroke-miterlimit="10" fill="#FFFFBF" fill-rule="evenodd" transform="matrix(-0.999934 -0.011507 -0.011507 0.999934 1999 1227.42)"/><path d="M0 83.5962C-1.04596e-14 37.4273 36.7828-1.06429e-14 82.1566-2.12858e-14 127.53-4.25717e-14 164.313 37.4273 164.313 83.5962 164.313 129.765 127.53 167.192 82.1566 167.192 36.7828 167.192-5.22982e-14 129.765 0 83.5962Z" stroke="#000000" stroke-width="1.14583" stroke-linejoin="round" stroke-miterlimit="10" fill="#7F7F7F" fill-rule="evenodd" transform="matrix(-0.999934 -0.011507 -0.011507 0.999934 2720.58 1082.72)"/><path d="M0 83.5962C-1.04596e-14 37.4273 36.7828-1.06429e-14 82.1566-2.12858e-14 127.53-4.25717e-14 164.313 37.4273 164.313 83.5962 164.313 129.765 127.53 167.192 82.1566 167.192 36.7828 167.192-5.22982e-14 129.765 0 83.5962Z" stroke="#000000" stroke-width="1.14583" stroke-linejoin="round" stroke-miterlimit="10" fill="#7F7F7F" fill-rule="evenodd" transform="matrix(-0.999934 -0.011507 -0.011507 0.999934 3112.13 1140.16)"/><path d="M0 83.5962C-1.04596e-14 37.4273 36.7828-1.06429e-14 82.1566-2.12858e-14 127.53-4.25717e-14 164.313 37.4273 164.313 83.5962 164.313 129.765 127.53 167.192 82.1566 167.192 36.7828 167.192-5.22982e-14 129.765 0 83.5962Z" stroke="#000000" stroke-width="1.14583" stroke-linejoin="round" stroke-miterlimit="10" fill="#7F7F7F" fill-rule="evenodd" transform="matrix(-0.999934 -0.011507 -0.011507 0.999934 1423.94 1078.79)"/><path d="M0 41.3281C-5.17109e-15 18.5032 18.1848-5.26162e-15 40.617-1.05232e-14 63.0491-2.10465e-14 81.234 18.5032 81.234 41.3281 81.234 64.153 63.0491 82.6563 40.617 82.6563 18.1848 82.6563-2.58554e-14 64.153 0 41.3281Z" stroke="#000000" stroke-width="1.14583" stroke-linejoin="round" stroke-miterlimit="10" fill="#FFFFBF" fill-rule="evenodd" transform="matrix(-0.999934 -0.011507 -0.011507 0.999934 1571.8 1338.13)"/><path d="M0 42.2681C-5.17109e-15 18.9241 18.1848-5.38129e-15 40.617-1.07626e-14 63.0491-2.15252e-14 81.234 18.9241 81.234 42.2681 81.234 65.6121 63.0491 84.5362 40.617 84.5362 18.1848 84.5362-2.58554e-14 65.6121 0 42.2681Z" stroke="#000000" stroke-width="1.14583" stroke-linejoin="round" stroke-miterlimit="10" fill="#FFFFBF" fill-rule="evenodd" transform="matrix(-0.999934 -0.011507 -0.011507 0.999934 3396.65 1440.65)"/><path d="M0 92.0501C-1.15174e-14 41.2122 40.5026-1.17192e-14 90.4651-2.34384e-14 140.428-4.68768e-14 180.93 41.2122 180.93 92.0501 180.93 142.888 140.428 184.1 90.4651 184.1 40.5026 184.1-5.75871e-14 142.888 0 92.0501Z" stroke="#000000" stroke-width="1.14583" stroke-linejoin="round" stroke-miterlimit="10" fill="#7F7F7F" fill-rule="evenodd" transform="matrix(-0.999934 -0.011507 -0.011507 0.999934 2537.11 932.344)"/><path d="M0 42.2681C-5.17109e-15 18.9241 18.1848-5.38129e-15 40.617-1.07626e-14 63.0491-2.15252e-14 81.234 18.9241 81.234 42.2681 81.234 65.6121 63.0491 84.5362 40.617 84.5362 18.1848 84.5362-2.58554e-14 65.6121 0 42.2681Z" stroke="#000000" stroke-width="1.14583" stroke-linejoin="round" stroke-miterlimit="10" fill="#FFFFBF" fill-rule="evenodd" transform="matrix(-0.999934 -0.011507 -0.011507 0.999934 2295.58 1124.64)"/><path d="M0 91.1102C-1.15174e-14 40.7914 40.5026-1.15995e-14 90.4651-2.31991e-14 140.428-4.63982e-14 180.93 40.7914 180.93 91.1102 180.93 141.429 140.428 182.22 90.4651 182.22 40.5026 182.22-5.75871e-14 141.429 0 91.1102Z" stroke="#000000" stroke-width="1.14583" stroke-linejoin="round" stroke-miterlimit="10" fill="#7F7F7F" fill-rule="evenodd" transform="matrix(-0.999934 -0.011507 -0.011507 0.999934 2953.4 957.609)"/><path d="M0 41.3281C-5.17109e-15 18.5032 18.1848-5.26162e-15 40.617-1.05232e-14 63.0491-2.10465e-14 81.234 18.5032 81.234 41.3281 81.234 64.153 63.0491 82.6563 40.617 82.6563 18.1848 82.6563-2.58554e-14 64.153 0 41.3281Z" stroke="#000000" stroke-width="1.14583" stroke-linejoin="round" stroke-miterlimit="10" fill="#FFFFBF" fill-rule="evenodd" transform="matrix(-0.999934 -0.011507 -0.011507 0.999934 3008.24 1334.11)"/><path d="M0 42.2681C-5.28852e-15 18.9241 18.5978-5.38129e-15 41.5394-1.07626e-14 64.481-2.15252e-14 83.0789 18.9241 83.0789 42.2681 83.0789 65.6121 64.481 84.5362 41.5394 84.5362 18.5978 84.5362-2.64426e-14 65.6121 0 42.2681Z" stroke="#000000" stroke-width="1.14583" stroke-linejoin="round" stroke-miterlimit="10" fill="#FFFFBF" fill-rule="evenodd" transform="matrix(-0.999934 -0.011507 -0.011507 0.999934 2470.88 1024.09)"/><path d="M0 41.3281C-5.28852e-15 18.5032 18.5978-5.26162e-15 41.5394-1.05232e-14 64.481-2.10465e-14 83.0789 18.5032 83.0789 41.3281 83.0789 64.153 64.481 82.6563 41.5394 82.6563 18.5978 82.6563-2.64426e-14 64.153 0 41.3281Z" stroke="#000000" stroke-width="1.14583" stroke-linejoin="round" stroke-miterlimit="10" fill="#FFFFBF" fill-rule="evenodd" transform="matrix(-0.999934 -0.011507 -0.011507 0.999934 2668.57 1259.55)"/><path d="M0 92.0501C-1.15174e-14 41.2122 40.5026-1.17192e-14 90.4651-2.34384e-14 140.428-4.68768e-14 180.93 41.2122 180.93 92.0501 180.93 142.888 140.428 184.1 90.4651 184.1 40.5026 184.1-5.75871e-14 142.888 0 92.0501Z" stroke="#000000" stroke-width="1.14583" stroke-linejoin="round" stroke-miterlimit="10" fill="#7F7F7F" fill-rule="evenodd" transform="matrix(-0.999934 -0.011507 -0.011507 0.999934 3334.01 1081.17)"/><path d="M0 92.0501C-1.13998e-14 41.2122 40.0889-1.17192e-14 89.541-2.34384e-14 138.993-4.68768e-14 179.082 41.2122 179.082 92.0501 179.082 142.888 138.993 184.1 89.541 184.1 40.0889 184.1-5.69988e-14 142.888 0 92.0501Z" stroke="#000000" stroke-width="1.14583" stroke-linejoin="round" stroke-miterlimit="10" fill="#7F7F7F" fill-rule="evenodd" transform="matrix(-0.999934 -0.011507 -0.011507 0.999934 1800.56 1002.36)"/><path d="M0 91.1102C-1.15174e-14 40.7914 40.5026-1.15995e-14 90.4651-2.31991e-14 140.428-4.63982e-14 180.93 40.7914 180.93 91.1102 180.93 141.429 140.428 182.22 90.4651 182.22 40.5026 182.22-5.75871e-14 141.429 0 91.1102Z" stroke="#000000" stroke-width="1.14583" stroke-linejoin="round" stroke-miterlimit="10" fill="#7F7F7F" fill-rule="evenodd" transform="matrix(-0.999934 -0.011507 -0.011507 0.999934 1976.17 1169.92)"/><path d="M0 116.471C-1.4573e-14 52.146 51.2481-1.48284e-14 114.466-2.96567e-14 177.684-5.93134e-14 228.932 52.146 228.932 116.471 228.932 180.797 177.684 232.943 114.466 232.943 51.2481 232.943-7.28652e-14 180.797 0 116.471Z" stroke="#000000" stroke-width="1.14583" stroke-linejoin="round" stroke-miterlimit="10" fill="url(#fill5)" fill-rule="evenodd" transform="matrix(-0.999934 -0.011507 -0.011507 0.999934 2568.44 640.069)"/><path d="M0 92.0501C-1.13998e-14 41.2122 40.0889-1.17192e-14 89.541-2.34384e-14 138.993-4.68768e-14 179.082 41.2122 179.082 92.0501 179.082 142.888 138.993 184.1 89.541 184.1 40.0889 184.1-5.69988e-14 142.888 0 92.0501Z" stroke="#000000" stroke-width="1.14583" stroke-linejoin="round" stroke-miterlimit="10" fill="#7F7F7F" fill-rule="evenodd" transform="matrix(-0.999934 -0.011507 -0.011507 0.999934 3432.74 1307.45)"/><path d="M0 41.3281C-5.28852e-15 18.5032 18.5978-5.26162e-15 41.5394-1.05232e-14 64.481-2.10465e-14 83.0789 18.5032 83.0789 41.3281 83.0789 64.153 64.481 82.6563 41.5394 82.6563 18.5978 82.6563-2.64426e-14 64.153 0 41.3281Z" stroke="#000000" stroke-width="1.14583" stroke-linejoin="round" stroke-miterlimit="10" fill="#FFFFBF" fill-rule="evenodd" transform="matrix(-0.999934 -0.011507 -0.011507 0.999934 1857.26 1378.88)"/><path d="M0 41.3281C-5.17109e-15 18.5032 18.1848-5.26162e-15 40.617-1.05232e-14 63.0491-2.10465e-14 81.234 18.5032 81.234 41.3281 81.234 64.153 63.0491 82.6563 40.617 82.6563 18.1848 82.6563-2.58554e-14 64.153 0 41.3281Z" stroke="#000000" stroke-width="1.14583" stroke-linejoin="round" stroke-miterlimit="10" fill="#FFFFBF" fill-rule="evenodd" transform="matrix(-0.999934 -0.011507 -0.011507 0.999934 1820.24 901.276)"/><path d="M0 92.0501C-1.13998e-14 41.2122 40.0889-1.17192e-14 89.541-2.34384e-14 138.993-4.68768e-14 179.082 41.2122 179.082 92.0501 179.082 142.888 138.993 184.1 89.541 184.1 40.0889 184.1-5.69988e-14 142.888 0 92.0501Z" stroke="#000000" stroke-width="1.14583" stroke-linejoin="round" stroke-miterlimit="10" fill="#7F7F7F" fill-rule="evenodd" transform="matrix(-0.999934 -0.011507 -0.011507 0.999934 2352.22 1117.88)"/><path d="M0 42.2681C-5.28852e-15 18.9241 18.5978-5.38129e-15 41.5394-1.07626e-14 64.481-2.15252e-14 83.0789 18.9241 83.0789 42.2681 83.0789 65.6121 64.481 84.5362 41.5394 84.5362 18.5978 84.5362-2.64426e-14 65.6121 0 42.2681Z" stroke="#000000" stroke-width="1.14583" stroke-linejoin="round" stroke-miterlimit="10" fill="#FFFFBF" fill-rule="evenodd" transform="matrix(-0.999934 -0.011507 -0.011507 0.999934 2913.27 964.322)"/><path d="M0 42.2681C-5.17109e-15 18.9241 18.1848-5.38129e-15 40.617-1.07626e-14 63.0491-2.15252e-14 81.234 18.9241 81.234 42.2681 81.234 65.6121 63.0491 84.5362 40.617 84.5362 18.1848 84.5362-2.58554e-14 65.6121 0 42.2681Z" stroke="#000000" stroke-width="1.14583" stroke-linejoin="round" stroke-miterlimit="10" fill="#FFFFBF" fill-rule="evenodd" transform="matrix(-0.999934 -0.011507 -0.011507 0.999934 2347.2 1326.52)"/><path d="M0 41.3281C-5.28852e-15 18.5032 18.5978-5.26162e-15 41.5394-1.05232e-14 64.481-2.10465e-14 83.0789 18.5032 83.0789 41.3281 83.0789 64.153 64.481 82.6563 41.5394 82.6563 18.5978 82.6563-2.64426e-14 64.153 0 41.3281Z" stroke="#000000" stroke-width="1.14583" stroke-linejoin="round" stroke-miterlimit="10" fill="#FFFFBF" fill-rule="evenodd" transform="matrix(-0.999934 -0.011507 -0.011507 0.999934 3261.69 1055.86)"/><path d="M0 41.3281C-5.17109e-15 18.5032 18.1848-5.26162e-15 40.617-1.05232e-14 63.0491-2.10465e-14 81.234 18.5032 81.234 41.3281 81.234 64.153 63.0491 82.6563 40.617 82.6563 18.1848 82.6563-2.58554e-14 64.153 0 41.3281Z" stroke="#000000" stroke-width="1.14583" stroke-linejoin="round" stroke-miterlimit="10" fill="#FFFFBF" fill-rule="evenodd" transform="matrix(-0.999934 -0.011507 -0.011507 0.999934 3282.53 1450.41)"/><path d="M0 91.1102C-1.15174e-14 40.7914 40.5026-1.15995e-14 90.4651-2.31991e-14 140.428-4.63982e-14 180.93 40.7914 180.93 91.1102 180.93 141.429 140.428 182.22 90.4651 182.22 40.5026 182.22-5.75871e-14 141.429 0 91.1102Z" stroke="#000000" stroke-width="1.14583" stroke-linejoin="round" stroke-miterlimit="10" fill="#7F7F7F" fill-rule="evenodd" transform="matrix(-0.999934 -0.011507 -0.011507 0.999934 2134.29 1093.96)"/><path d="M0 41.3281C-5.17109e-15 18.5032 18.1848-5.26162e-15 40.617-1.05232e-14 63.0491-2.10465e-14 81.234 18.5032 81.234 41.3281 81.234 64.153 63.0491 82.6563 40.617 82.6563 18.1848 82.6563-2.58554e-14 64.153 0 41.3281Z" stroke="#000000" stroke-width="1.14583" stroke-linejoin="round" stroke-miterlimit="10" fill="#FFFFBF" fill-rule="evenodd" transform="matrix(-0.999934 -0.011507 -0.011507 0.999934 1323.6 1232.22)"/><path d="M0 41.3281C-5.17109e-15 18.5032 18.1848-5.26162e-15 40.617-1.05232e-14 63.0491-2.10465e-14 81.234 18.5032 81.234 41.3281 81.234 64.153 63.0491 82.6563 40.617 82.6563 18.1848 82.6563-2.58554e-14 64.153 0 41.3281Z" stroke="#000000" stroke-width="1.14583" stroke-linejoin="round" stroke-miterlimit="10" fill="#FFFFBF" fill-rule="evenodd" transform="matrix(-0.999934 -0.011507 -0.011507 0.999934 2055.21 976.144)"/><path d="M0 116.471C-1.46905e-14 52.146 51.6611-1.48284e-14 115.388-2.96567e-14 179.115-5.93134e-14 230.777 52.146 230.777 116.471 230.777 180.797 179.115 232.943 115.388 232.943 51.6611 232.943-7.34524e-14 180.797 0 116.471Z" stroke="#000000" stroke-width="1.14583" stroke-linejoin="round" stroke-miterlimit="10" fill="url(#fill6)" fill-rule="evenodd" transform="matrix(-0.999934 -0.011507 -0.011507 0.999934 1638.68 1003.31)"/><path d="M0 116.471C-1.46905e-14 52.146 51.6611-1.48284e-14 115.388-2.96567e-14 179.115-5.93134e-14 230.777 52.146 230.777 116.471 230.777 180.797 179.115 232.943 115.388 232.943 51.6611 232.943-7.34524e-14 180.797 0 116.471Z" stroke="#000000" stroke-width="1.14583" stroke-linejoin="round" stroke-miterlimit="10" fill="url(#fill7)" fill-rule="evenodd" transform="matrix(-0.999934 -0.011507 -0.011507 0.999934 2129.86 1253.06)"/><path d="M0 34.8804C-4.3934e-15 15.6165 15.45-4.44074e-15 34.5085-8.88149e-15 53.5671-1.7763e-14 69.0171 15.6165 69.0171 34.8804 69.0171 54.1444 53.5671 69.7609 34.5085 69.7609 15.45 69.7609-2.1967e-14 54.1444 0 34.8804Z" stroke="#000000" stroke-width="1.14583" stroke-linejoin="round" stroke-miterlimit="10" fill="#FFFFBF" fill-rule="evenodd" transform="matrix(-0.999934 -0.011507 -0.011507 0.999934 3497.61 1376.36)"/><path d="M0 42.2681C-5.28852e-15 18.9241 18.5978-5.38129e-15 41.5394-1.07626e-14 64.481-2.15252e-14 83.0789 18.9241 83.0789 42.2681 83.0789 65.6121 64.481 84.5362 41.5394 84.5362 18.5978 84.5362-2.64426e-14 65.6121 0 42.2681Z" stroke="#000000" stroke-width="1.14583" stroke-linejoin="round" stroke-miterlimit="10" fill="#FFFFBF" fill-rule="evenodd" transform="matrix(-0.999934 -0.011507 -0.011507 0.999934 1178.08 1323.28)"/><path d="M0 83.5962C-1.04596e-14 37.4273 36.7828-1.06429e-14 82.1566-2.12858e-14 127.53-4.25717e-14 164.313 37.4273 164.313 83.5962 164.313 129.765 127.53 167.192 82.1566 167.192 36.7828 167.192-5.22982e-14 129.765 0 83.5962Z" stroke="#000000" stroke-width="1.14583" stroke-linejoin="round" stroke-miterlimit="10" fill="#7F7F7F" fill-rule="evenodd" transform="matrix(-0.999934 -0.011507 -0.011507 0.999934 1214.1 1180.29)"/><path d="M0 41.3281C-5.17109e-15 18.5032 18.1848-5.26162e-15 40.617-1.05232e-14 63.0491-2.10465e-14 81.234 18.5032 81.234 41.3281 81.234 64.153 63.0491 82.6563 40.617 82.6563 18.1848 82.6563-2.58554e-14 64.153 0 41.3281Z" stroke="#000000" stroke-width="1.14583" stroke-linejoin="round" stroke-miterlimit="10" fill="#FFFFBF" fill-rule="evenodd" transform="matrix(-0.999934 -0.011507 -0.011507 0.999934 1095.99 1288.31)"/></g></svg>